<mxfile host="app.diagrams.net" modified="2023-11-22T08:18:21.876Z" agent="Mozilla/5.0 (Macintosh; Intel Mac OS X 10_15_7) AppleWebKit/537.36 (KHTML, like Gecko) Chrome/119.0.0.0 Safari/537.36" etag="zHsk3IIv9aixaKgW6z2_" version="22.1.3" type="device">
  <diagram name="Page-1" id="7fj5daxvw-zFe0u0rVS1">
    <mxGraphModel dx="2902" dy="4044" grid="1" gridSize="10" guides="1" tooltips="1" connect="1" arrows="1" fold="1" page="1" pageScale="1" pageWidth="850" pageHeight="1100" math="0" shadow="0">
      <root>
        <mxCell id="0" />
        <mxCell id="1" parent="0" />
        <mxCell id="hoaP64khOImTLO0eVR3v-3" value="" style="triangle;whiteSpace=wrap;html=1;fillColor=none;dashed=1;strokeWidth=6;strokeColor=#EB6E52;rotation=3;" parent="1" vertex="1">
          <mxGeometry x="540" y="450" width="620" height="670" as="geometry" />
        </mxCell>
        <mxCell id="hoaP64khOImTLO0eVR3v-4" value="" style="rounded=1;whiteSpace=wrap;html=1;fillColor=none;strokeWidth=3;dashed=1;" parent="1" vertex="1">
          <mxGeometry x="580" y="1380" width="840" height="240" as="geometry" />
        </mxCell>
        <mxCell id="hoaP64khOImTLO0eVR3v-5" value="" style="rounded=1;whiteSpace=wrap;html=1;fillColor=none;strokeWidth=3;dashed=1;" parent="1" vertex="1">
          <mxGeometry x="190" y="-460" width="1430" height="910" as="geometry" />
        </mxCell>
        <mxCell id="hoaP64khOImTLO0eVR3v-6" value="&lt;font size=&quot;1&quot; face=&quot;Ubuntu&quot;&gt;&lt;b style=&quot;font-size: 20px;&quot;&gt;Graphing Module&lt;/b&gt;&lt;/font&gt;" style="text;html=1;strokeColor=none;fillColor=none;align=center;verticalAlign=middle;whiteSpace=wrap;rounded=0;" parent="1" vertex="1">
          <mxGeometry x="1140" y="1420" width="60" height="30" as="geometry" />
        </mxCell>
        <mxCell id="hoaP64khOImTLO0eVR3v-7" style="edgeStyle=orthogonalEdgeStyle;rounded=0;orthogonalLoop=1;jettySize=auto;html=1;exitX=0.5;exitY=1;exitDx=0;exitDy=0;strokeWidth=3;startArrow=classic;startFill=1;endArrow=none;endFill=0;" parent="1" source="hoaP64khOImTLO0eVR3v-8" target="hoaP64khOImTLO0eVR3v-9" edge="1">
          <mxGeometry relative="1" as="geometry" />
        </mxCell>
        <mxCell id="hoaP64khOImTLO0eVR3v-8" value="&lt;font color=&quot;#ffffff&quot; style=&quot;font-size: 20px;&quot; face=&quot;Ubuntu&quot;&gt;&lt;b&gt;index.html&lt;/b&gt;&lt;/font&gt;" style="ellipse;whiteSpace=wrap;html=1;aspect=fixed;strokeColor=none;fillColor=#E96328;strokeWidth=3;" parent="1" vertex="1">
          <mxGeometry x="730" y="-1320" width="120" height="120" as="geometry" />
        </mxCell>
        <mxCell id="hoaP64khOImTLO0eVR3v-9" value="&lt;font color=&quot;#ffffff&quot; style=&quot;font-size: 20px;&quot; face=&quot;Ubuntu&quot;&gt;&lt;b&gt;index.tsx&lt;/b&gt;&lt;/font&gt;" style="ellipse;whiteSpace=wrap;html=1;aspect=fixed;strokeColor=none;fillColor=#5FD3F2;" parent="1" vertex="1">
          <mxGeometry x="730" y="-1100" width="120" height="120" as="geometry" />
        </mxCell>
        <mxCell id="hoaP64khOImTLO0eVR3v-10" style="edgeStyle=orthogonalEdgeStyle;rounded=0;orthogonalLoop=1;jettySize=auto;html=1;exitX=1;exitY=0;exitDx=0;exitDy=0;entryX=1;entryY=0.5;entryDx=0;entryDy=0;curved=1;strokeWidth=3;" parent="1" source="hoaP64khOImTLO0eVR3v-9" target="hoaP64khOImTLO0eVR3v-9" edge="1">
          <mxGeometry relative="1" as="geometry">
            <Array as="points">
              <mxPoint x="832" y="-1120" />
              <mxPoint x="910" y="-1120" />
              <mxPoint x="910" y="-1040" />
            </Array>
          </mxGeometry>
        </mxCell>
        <mxCell id="hoaP64khOImTLO0eVR3v-11" value="&lt;font style=&quot;font-size: 20px;&quot; face=&quot;Ubuntu&quot;&gt;&lt;b&gt;setupSentry()&lt;/b&gt;&lt;/font&gt;" style="text;html=1;strokeColor=none;fillColor=none;align=center;verticalAlign=middle;whiteSpace=wrap;rounded=0;" parent="1" vertex="1">
          <mxGeometry x="910" y="-1100" width="160" height="30" as="geometry" />
        </mxCell>
        <mxCell id="hoaP64khOImTLO0eVR3v-12" style="edgeStyle=orthogonalEdgeStyle;rounded=0;orthogonalLoop=1;jettySize=auto;html=1;exitX=0.5;exitY=0;exitDx=0;exitDy=0;entryX=0.5;entryY=1;entryDx=0;entryDy=0;strokeWidth=3;" parent="1" source="hoaP64khOImTLO0eVR3v-16" target="hoaP64khOImTLO0eVR3v-9" edge="1">
          <mxGeometry relative="1" as="geometry" />
        </mxCell>
        <mxCell id="hoaP64khOImTLO0eVR3v-13" style="edgeStyle=orthogonalEdgeStyle;rounded=0;orthogonalLoop=1;jettySize=auto;html=1;exitX=1;exitY=0.5;exitDx=0;exitDy=0;entryX=0;entryY=0.5;entryDx=0;entryDy=0;entryPerimeter=0;strokeWidth=3;" parent="1" source="hoaP64khOImTLO0eVR3v-16" target="hoaP64khOImTLO0eVR3v-24" edge="1">
          <mxGeometry relative="1" as="geometry" />
        </mxCell>
        <mxCell id="hoaP64khOImTLO0eVR3v-14" style="edgeStyle=orthogonalEdgeStyle;rounded=0;orthogonalLoop=1;jettySize=auto;html=1;exitX=0;exitY=0.5;exitDx=0;exitDy=0;strokeWidth=3;" parent="1" source="hoaP64khOImTLO0eVR3v-16" target="hoaP64khOImTLO0eVR3v-26" edge="1">
          <mxGeometry relative="1" as="geometry" />
        </mxCell>
        <mxCell id="hoaP64khOImTLO0eVR3v-15" style="edgeStyle=orthogonalEdgeStyle;rounded=0;orthogonalLoop=1;jettySize=auto;html=1;exitX=0.5;exitY=1;exitDx=0;exitDy=0;entryX=0.5;entryY=0;entryDx=0;entryDy=0;strokeWidth=3;" parent="1" source="hoaP64khOImTLO0eVR3v-16" target="hoaP64khOImTLO0eVR3v-20" edge="1">
          <mxGeometry relative="1" as="geometry" />
        </mxCell>
        <mxCell id="hoaP64khOImTLO0eVR3v-16" value="&lt;font color=&quot;#ffffff&quot; style=&quot;font-size: 20px;&quot; face=&quot;Ubuntu&quot;&gt;&lt;b&gt;AppInit.tsx&lt;/b&gt;&lt;/font&gt;" style="ellipse;whiteSpace=wrap;html=1;aspect=fixed;strokeColor=none;fillColor=#5FD3F2;" parent="1" vertex="1">
          <mxGeometry x="730" y="-880" width="120" height="120" as="geometry" />
        </mxCell>
        <mxCell id="hoaP64khOImTLO0eVR3v-17" style="edgeStyle=orthogonalEdgeStyle;rounded=0;orthogonalLoop=1;jettySize=auto;html=1;exitX=0;exitY=0.5;exitDx=0;exitDy=0;strokeWidth=3;" parent="1" source="hoaP64khOImTLO0eVR3v-20" target="hoaP64khOImTLO0eVR3v-28" edge="1">
          <mxGeometry relative="1" as="geometry" />
        </mxCell>
        <mxCell id="hoaP64khOImTLO0eVR3v-18" style="rounded=0;orthogonalLoop=1;jettySize=auto;html=1;exitX=0;exitY=1;exitDx=0;exitDy=0;entryX=0.5;entryY=0;entryDx=0;entryDy=0;strokeWidth=3;edgeStyle=orthogonalEdgeStyle;" parent="1" source="hoaP64khOImTLO0eVR3v-20" target="hoaP64khOImTLO0eVR3v-33" edge="1">
          <mxGeometry relative="1" as="geometry" />
        </mxCell>
        <mxCell id="hoaP64khOImTLO0eVR3v-19" style="rounded=0;orthogonalLoop=1;jettySize=auto;html=1;exitX=1;exitY=1;exitDx=0;exitDy=0;strokeWidth=3;edgeStyle=orthogonalEdgeStyle;" parent="1" source="hoaP64khOImTLO0eVR3v-20" target="hoaP64khOImTLO0eVR3v-37" edge="1">
          <mxGeometry relative="1" as="geometry" />
        </mxCell>
        <mxCell id="hoaP64khOImTLO0eVR3v-20" value="&lt;font color=&quot;#ffffff&quot; style=&quot;font-size: 20px;&quot; face=&quot;Ubuntu&quot;&gt;&lt;b&gt;App.tsx&lt;/b&gt;&lt;/font&gt;" style="ellipse;whiteSpace=wrap;html=1;aspect=fixed;strokeColor=none;fillColor=#5FD3F2;" parent="1" vertex="1">
          <mxGeometry x="730" y="-660" width="120" height="120" as="geometry" />
        </mxCell>
        <mxCell id="hoaP64khOImTLO0eVR3v-21" value="&lt;font face=&quot;Ubuntu&quot;&gt;&lt;span style=&quot;font-size: 20px;&quot;&gt;&lt;b&gt;wraps&lt;/b&gt;&lt;/span&gt;&lt;/font&gt;" style="text;html=1;strokeColor=none;fillColor=none;align=center;verticalAlign=middle;whiteSpace=wrap;rounded=0;" parent="1" vertex="1">
          <mxGeometry x="660" y="-730" width="180" height="30" as="geometry" />
        </mxCell>
        <mxCell id="hoaP64khOImTLO0eVR3v-22" value="&lt;font face=&quot;Ubuntu&quot;&gt;&lt;span style=&quot;font-size: 20px;&quot;&gt;&lt;b&gt;is dependency of&lt;/b&gt;&lt;/span&gt;&lt;/font&gt;" style="text;html=1;strokeColor=none;fillColor=none;align=center;verticalAlign=middle;whiteSpace=wrap;rounded=0;" parent="1" vertex="1">
          <mxGeometry x="790" y="-940" width="180" height="30" as="geometry" />
        </mxCell>
        <mxCell id="hoaP64khOImTLO0eVR3v-23" value="&lt;font face=&quot;Ubuntu&quot;&gt;&lt;span style=&quot;font-size: 20px;&quot;&gt;&lt;b&gt;is dependency of&lt;/b&gt;&lt;/span&gt;&lt;/font&gt;" style="text;html=1;strokeColor=none;fillColor=none;align=center;verticalAlign=middle;whiteSpace=wrap;rounded=0;" parent="1" vertex="1">
          <mxGeometry x="600" y="-1160" width="180" height="30" as="geometry" />
        </mxCell>
        <mxCell id="hoaP64khOImTLO0eVR3v-24" value="&lt;font color=&quot;#7248b6&quot; style=&quot;font-size: 20px;&quot; face=&quot;Ubuntu&quot;&gt;&lt;b&gt;Redux Store&lt;/b&gt;&lt;/font&gt;" style="shape=cylinder3;whiteSpace=wrap;html=1;boundedLbl=1;backgroundOutline=1;size=15;fillColor=none;strokeColor=#7248B6;strokeWidth=3;" parent="1" vertex="1">
          <mxGeometry x="1320" y="-880" width="160" height="120" as="geometry" />
        </mxCell>
        <mxCell id="hoaP64khOImTLO0eVR3v-25" value="&lt;font face=&quot;Ubuntu&quot;&gt;&lt;span style=&quot;font-size: 20px;&quot;&gt;&lt;b&gt;connect to via Redux Provider&lt;/b&gt;&lt;/span&gt;&lt;/font&gt;" style="text;html=1;strokeColor=none;fillColor=none;align=center;verticalAlign=middle;whiteSpace=wrap;rounded=0;" parent="1" vertex="1">
          <mxGeometry x="1000" y="-870" width="180" height="30" as="geometry" />
        </mxCell>
        <mxCell id="hoaP64khOImTLO0eVR3v-26" value="&lt;font color=&quot;#0086f7&quot; style=&quot;font-size: 20px;&quot; face=&quot;Ubuntu&quot;&gt;&lt;b style=&quot;&quot;&gt;Neo4J DB&lt;/b&gt;&lt;/font&gt;" style="shape=cylinder3;whiteSpace=wrap;html=1;boundedLbl=1;backgroundOutline=1;size=15;fillColor=none;strokeColor=#0086F7;strokeWidth=3;" parent="1" vertex="1">
          <mxGeometry x="32" y="-880" width="160" height="120" as="geometry" />
        </mxCell>
        <mxCell id="hoaP64khOImTLO0eVR3v-27" value="&lt;font face=&quot;Ubuntu&quot;&gt;&lt;span style=&quot;font-size: 20px;&quot;&gt;&lt;b&gt;connect to via suber&lt;/b&gt;&lt;/span&gt;&lt;/font&gt;" style="text;html=1;strokeColor=none;fillColor=none;align=center;verticalAlign=middle;whiteSpace=wrap;rounded=0;" parent="1" vertex="1">
          <mxGeometry x="490" y="-870" width="180" height="30" as="geometry" />
        </mxCell>
        <mxCell id="hoaP64khOImTLO0eVR3v-28" value="&lt;font color=&quot;#ffffff&quot; style=&quot;font-size: 20px;&quot; face=&quot;Ubuntu&quot;&gt;&lt;b&gt;AppInit.tsx&lt;/b&gt;&lt;/font&gt;" style="ellipse;whiteSpace=wrap;html=1;aspect=fixed;strokeColor=none;fillColor=#5B4372;" parent="1" vertex="1">
          <mxGeometry x="280" y="-660" width="120" height="120" as="geometry" />
        </mxCell>
        <mxCell id="hoaP64khOImTLO0eVR3v-29" value="&lt;font face=&quot;Ubuntu&quot;&gt;&lt;span style=&quot;font-size: 20px;&quot;&gt;&lt;b&gt;ErrorBoundary&lt;/b&gt;&lt;/span&gt;&lt;/font&gt;" style="text;html=1;strokeColor=none;fillColor=none;align=center;verticalAlign=middle;whiteSpace=wrap;rounded=0;" parent="1" vertex="1">
          <mxGeometry x="480" y="-650" width="180" height="30" as="geometry" />
        </mxCell>
        <mxCell id="hoaP64khOImTLO0eVR3v-30" style="edgeStyle=orthogonalEdgeStyle;rounded=0;orthogonalLoop=1;jettySize=auto;html=1;exitX=1;exitY=0;exitDx=0;exitDy=0;entryX=1;entryY=0.5;entryDx=0;entryDy=0;curved=1;strokeWidth=3;" parent="1" source="hoaP64khOImTLO0eVR3v-20" target="hoaP64khOImTLO0eVR3v-20" edge="1">
          <mxGeometry relative="1" as="geometry">
            <Array as="points">
              <mxPoint x="832" y="-680" />
              <mxPoint x="960" y="-680" />
              <mxPoint x="960" y="-600" />
            </Array>
          </mxGeometry>
        </mxCell>
        <mxCell id="hoaP64khOImTLO0eVR3v-31" value="&lt;font face=&quot;Ubuntu&quot; style=&quot;font-size: 20px;&quot;&gt;&lt;b&gt;&lt;font style=&quot;font-size: 20px;&quot;&gt;ThemeProvider&lt;br&gt;&lt;/font&gt;(styled-components)&lt;/b&gt;&lt;/font&gt;" style="text;html=1;strokeColor=none;fillColor=none;align=center;verticalAlign=middle;whiteSpace=wrap;rounded=0;" parent="1" vertex="1">
          <mxGeometry x="940" y="-670" width="180" height="30" as="geometry" />
        </mxCell>
        <mxCell id="hoaP64khOImTLO0eVR3v-32" style="edgeStyle=orthogonalEdgeStyle;rounded=0;orthogonalLoop=1;jettySize=auto;html=1;exitX=0;exitY=0.5;exitDx=0;exitDy=0;entryX=0.5;entryY=1;entryDx=0;entryDy=0;strokeWidth=3;" parent="1" source="hoaP64khOImTLO0eVR3v-33" target="hoaP64khOImTLO0eVR3v-28" edge="1">
          <mxGeometry relative="1" as="geometry" />
        </mxCell>
        <mxCell id="hoaP64khOImTLO0eVR3v-33" value="&lt;font color=&quot;#ffffff&quot; style=&quot;font-size: 20px;&quot; face=&quot;Ubuntu&quot;&gt;&lt;b&gt;Sidebar.tsx&lt;/b&gt;&lt;/font&gt;" style="ellipse;whiteSpace=wrap;html=1;aspect=fixed;strokeColor=none;fillColor=#5FD3F2;" parent="1" vertex="1">
          <mxGeometry x="425" y="-335" width="120" height="120" as="geometry" />
        </mxCell>
        <mxCell id="hoaP64khOImTLO0eVR3v-34" value="&lt;font face=&quot;Ubuntu&quot;&gt;&lt;span style=&quot;font-size: 20px;&quot;&gt;&lt;b&gt;ErrorBoundary&lt;/b&gt;&lt;/span&gt;&lt;/font&gt;" style="text;html=1;strokeColor=none;fillColor=none;align=center;verticalAlign=middle;whiteSpace=wrap;rounded=0;" parent="1" vertex="1">
          <mxGeometry x="170" y="-430" width="180" height="30" as="geometry" />
        </mxCell>
        <mxCell id="hoaP64khOImTLO0eVR3v-35" style="edgeStyle=orthogonalEdgeStyle;rounded=0;orthogonalLoop=1;jettySize=auto;html=1;exitX=0;exitY=0.5;exitDx=0;exitDy=0;strokeWidth=3;" parent="1" source="hoaP64khOImTLO0eVR3v-37" target="hoaP64khOImTLO0eVR3v-38" edge="1">
          <mxGeometry relative="1" as="geometry" />
        </mxCell>
        <mxCell id="hoaP64khOImTLO0eVR3v-36" style="edgeStyle=orthogonalEdgeStyle;rounded=0;orthogonalLoop=1;jettySize=auto;html=1;exitX=0.5;exitY=1;exitDx=0;exitDy=0;entryX=0.5;entryY=0;entryDx=0;entryDy=0;strokeWidth=3;" parent="1" source="hoaP64khOImTLO0eVR3v-37" target="hoaP64khOImTLO0eVR3v-41" edge="1">
          <mxGeometry relative="1" as="geometry" />
        </mxCell>
        <mxCell id="hoaP64khOImTLO0eVR3v-37" value="&lt;font color=&quot;#ffffff&quot; style=&quot;font-size: 20px;&quot; face=&quot;Ubuntu&quot;&gt;&lt;b&gt;Main.tsx&lt;/b&gt;&lt;/font&gt;" style="ellipse;whiteSpace=wrap;html=1;aspect=fixed;strokeColor=none;fillColor=#5FD3F2;" parent="1" vertex="1">
          <mxGeometry x="1070" y="-350" width="120" height="120" as="geometry" />
        </mxCell>
        <mxCell id="hoaP64khOImTLO0eVR3v-38" value="&lt;font color=&quot;#ffffff&quot; style=&quot;font-size: 20px;&quot; face=&quot;Ubuntu&quot;&gt;&lt;b&gt;Editor.tsx&lt;/b&gt;&lt;/font&gt;" style="ellipse;whiteSpace=wrap;html=1;aspect=fixed;strokeColor=none;fillColor=#5FD3F2;" parent="1" vertex="1">
          <mxGeometry x="810" y="-350" width="120" height="120" as="geometry" />
        </mxCell>
        <mxCell id="hoaP64khOImTLO0eVR3v-39" style="edgeStyle=orthogonalEdgeStyle;rounded=0;orthogonalLoop=1;jettySize=auto;html=1;exitX=1;exitY=0.5;exitDx=0;exitDy=0;entryX=0.5;entryY=1;entryDx=0;entryDy=0;entryPerimeter=0;strokeWidth=3;" parent="1" source="hoaP64khOImTLO0eVR3v-41" target="hoaP64khOImTLO0eVR3v-24" edge="1">
          <mxGeometry relative="1" as="geometry" />
        </mxCell>
        <mxCell id="hoaP64khOImTLO0eVR3v-40" style="edgeStyle=orthogonalEdgeStyle;rounded=0;orthogonalLoop=1;jettySize=auto;html=1;exitX=0.5;exitY=1;exitDx=0;exitDy=0;strokeWidth=3;" parent="1" source="hoaP64khOImTLO0eVR3v-41" target="hoaP64khOImTLO0eVR3v-44" edge="1">
          <mxGeometry relative="1" as="geometry" />
        </mxCell>
        <mxCell id="hoaP64khOImTLO0eVR3v-41" value="&lt;font color=&quot;#ffffff&quot; style=&quot;font-size: 20px;&quot; face=&quot;Ubuntu&quot;&gt;&lt;b&gt;Stream.tsx&lt;/b&gt;&lt;/font&gt;" style="ellipse;whiteSpace=wrap;html=1;aspect=fixed;strokeColor=none;fillColor=#5FD3F2;" parent="1" vertex="1">
          <mxGeometry x="1070" y="-150" width="120" height="120" as="geometry" />
        </mxCell>
        <mxCell id="hoaP64khOImTLO0eVR3v-42" style="edgeStyle=orthogonalEdgeStyle;rounded=0;orthogonalLoop=1;jettySize=auto;html=1;exitX=1;exitY=0.5;exitDx=0;exitDy=0;entryX=0.5;entryY=1;entryDx=0;entryDy=0;entryPerimeter=0;strokeWidth=3;" parent="1" source="hoaP64khOImTLO0eVR3v-44" target="hoaP64khOImTLO0eVR3v-24" edge="1">
          <mxGeometry relative="1" as="geometry" />
        </mxCell>
        <mxCell id="hoaP64khOImTLO0eVR3v-43" style="edgeStyle=orthogonalEdgeStyle;rounded=0;orthogonalLoop=1;jettySize=auto;html=1;exitX=0.5;exitY=1;exitDx=0;exitDy=0;entryX=0.5;entryY=0;entryDx=0;entryDy=0;strokeWidth=3;" parent="1" source="hoaP64khOImTLO0eVR3v-44" target="hoaP64khOImTLO0eVR3v-48" edge="1">
          <mxGeometry relative="1" as="geometry" />
        </mxCell>
        <mxCell id="hoaP64khOImTLO0eVR3v-44" value="&lt;font color=&quot;#ffffff&quot; style=&quot;font-size: 20px;&quot; face=&quot;Ubuntu&quot;&gt;&lt;b&gt;Cypher&lt;br&gt;Frame.tsx&lt;/b&gt;&lt;/font&gt;" style="ellipse;whiteSpace=wrap;html=1;aspect=fixed;strokeColor=none;fillColor=#5FD3F2;" parent="1" vertex="1">
          <mxGeometry x="1070" y="60" width="120" height="120" as="geometry" />
        </mxCell>
        <mxCell id="hoaP64khOImTLO0eVR3v-45" style="edgeStyle=orthogonalEdgeStyle;rounded=0;orthogonalLoop=1;jettySize=auto;html=1;exitX=1;exitY=0.5;exitDx=0;exitDy=0;strokeWidth=3;" parent="1" source="hoaP64khOImTLO0eVR3v-48" target="hoaP64khOImTLO0eVR3v-24" edge="1">
          <mxGeometry relative="1" as="geometry" />
        </mxCell>
        <mxCell id="hoaP64khOImTLO0eVR3v-46" style="edgeStyle=orthogonalEdgeStyle;rounded=0;orthogonalLoop=1;jettySize=auto;html=1;exitX=0.5;exitY=1;exitDx=0;exitDy=0;entryX=0.5;entryY=0;entryDx=0;entryDy=0;strokeWidth=3;" parent="1" source="hoaP64khOImTLO0eVR3v-48" target="hoaP64khOImTLO0eVR3v-51" edge="1">
          <mxGeometry relative="1" as="geometry" />
        </mxCell>
        <mxCell id="hoaP64khOImTLO0eVR3v-47" style="edgeStyle=orthogonalEdgeStyle;rounded=0;orthogonalLoop=1;jettySize=auto;html=1;exitX=0;exitY=0.5;exitDx=0;exitDy=0;dashed=1;strokeWidth=3;curved=1;" parent="1" source="hoaP64khOImTLO0eVR3v-75" target="hoaP64khOImTLO0eVR3v-71" edge="1">
          <mxGeometry relative="1" as="geometry" />
        </mxCell>
        <mxCell id="hoaP64khOImTLO0eVR3v-48" value="&lt;font color=&quot;#ffffff&quot; style=&quot;font-size: 20px;&quot; face=&quot;Ubuntu&quot;&gt;&lt;b&gt;Visualization&lt;br&gt;View.tsx&lt;/b&gt;&lt;/font&gt;" style="ellipse;whiteSpace=wrap;html=1;aspect=fixed;strokeColor=none;fillColor=#5FD3F2;" parent="1" vertex="1">
          <mxGeometry x="1060" y="270" width="140" height="140" as="geometry" />
        </mxCell>
        <mxCell id="hoaP64khOImTLO0eVR3v-49" style="rounded=0;orthogonalLoop=1;jettySize=auto;html=1;exitX=0;exitY=0.5;exitDx=0;exitDy=0;strokeWidth=3;edgeStyle=orthogonalEdgeStyle;" parent="1" source="hoaP64khOImTLO0eVR3v-51" target="hoaP64khOImTLO0eVR3v-53" edge="1">
          <mxGeometry relative="1" as="geometry" />
        </mxCell>
        <mxCell id="hoaP64khOImTLO0eVR3v-50" style="rounded=0;orthogonalLoop=1;jettySize=auto;html=1;exitX=1;exitY=0.5;exitDx=0;exitDy=0;entryX=0.5;entryY=0;entryDx=0;entryDy=0;strokeWidth=3;edgeStyle=orthogonalEdgeStyle;" parent="1" source="hoaP64khOImTLO0eVR3v-51" target="hoaP64khOImTLO0eVR3v-54" edge="1">
          <mxGeometry relative="1" as="geometry" />
        </mxCell>
        <mxCell id="hoaP64khOImTLO0eVR3v-51" value="&lt;font color=&quot;#ffffff&quot; style=&quot;font-size: 20px;&quot; face=&quot;Ubuntu&quot;&gt;&lt;b&gt;Graph&lt;br&gt;Visualizer.tsx&lt;/b&gt;&lt;/font&gt;" style="ellipse;whiteSpace=wrap;html=1;aspect=fixed;strokeColor=none;fillColor=#5FD3F2;" parent="1" vertex="1">
          <mxGeometry x="1060" y="500" width="140" height="140" as="geometry" />
        </mxCell>
        <mxCell id="hoaP64khOImTLO0eVR3v-52" style="edgeStyle=orthogonalEdgeStyle;rounded=0;orthogonalLoop=1;jettySize=auto;html=1;exitX=0.5;exitY=1;exitDx=0;exitDy=0;entryX=0.393;entryY=0.004;entryDx=0;entryDy=0;entryPerimeter=0;strokeWidth=3;" parent="1" source="hoaP64khOImTLO0eVR3v-53" target="hoaP64khOImTLO0eVR3v-4" edge="1">
          <mxGeometry relative="1" as="geometry" />
        </mxCell>
        <mxCell id="hoaP64khOImTLO0eVR3v-53" value="&lt;b style=&quot;border-color: var(--border-color); color: rgb(255, 255, 255); font-family: Ubuntu; font-size: 20px;&quot;&gt;Graph.tsx&lt;/b&gt;" style="ellipse;whiteSpace=wrap;html=1;aspect=fixed;strokeColor=none;fillColor=#5FD3F2;" parent="1" vertex="1">
          <mxGeometry x="850" y="690" width="120" height="120" as="geometry" />
        </mxCell>
        <mxCell id="hoaP64khOImTLO0eVR3v-54" value="&lt;font color=&quot;#ffffff&quot; style=&quot;font-size: 20px;&quot; face=&quot;Ubuntu&quot;&gt;&lt;b&gt;Node&lt;br&gt;InspectionPanel.tsx&lt;/b&gt;&lt;/font&gt;" style="ellipse;whiteSpace=wrap;html=1;aspect=fixed;strokeColor=none;fillColor=#5FD3F2;" parent="1" vertex="1">
          <mxGeometry x="1250" y="670" width="210" height="210" as="geometry" />
        </mxCell>
        <mxCell id="hoaP64khOImTLO0eVR3v-55" value="&lt;font color=&quot;#ffffff&quot; style=&quot;font-size: 20px;&quot; face=&quot;Ubuntu&quot;&gt;&lt;b&gt;Relationship.tsx&lt;/b&gt;&lt;/font&gt;" style="ellipse;whiteSpace=wrap;html=1;aspect=fixed;strokeColor=none;fillColor=#5FD3F2;" parent="1" vertex="1">
          <mxGeometry x="665" y="1415" width="170" height="170" as="geometry" />
        </mxCell>
        <mxCell id="hoaP64khOImTLO0eVR3v-56" value="&lt;font color=&quot;#ffffff&quot; style=&quot;font-size: 20px;&quot; face=&quot;Ubuntu&quot;&gt;&lt;b&gt;Graph.tsx&lt;/b&gt;&lt;/font&gt;" style="ellipse;whiteSpace=wrap;html=1;aspect=fixed;strokeColor=none;fillColor=#5FD3F2;" parent="1" vertex="1">
          <mxGeometry x="970" y="1440" width="120" height="120" as="geometry" />
        </mxCell>
        <mxCell id="hoaP64khOImTLO0eVR3v-57" value="&lt;font color=&quot;#ffffff&quot; style=&quot;font-size: 20px;&quot; face=&quot;Ubuntu&quot;&gt;&lt;b&gt;Node.tsx&lt;/b&gt;&lt;/font&gt;" style="ellipse;whiteSpace=wrap;html=1;aspect=fixed;strokeColor=none;fillColor=#5FD3F2;" parent="1" vertex="1">
          <mxGeometry x="1240" y="1445" width="120" height="120" as="geometry" />
        </mxCell>
        <mxCell id="hoaP64khOImTLO0eVR3v-58" style="rounded=0;orthogonalLoop=1;jettySize=auto;html=1;strokeWidth=3;" parent="1" source="hoaP64khOImTLO0eVR3v-61" target="hoaP64khOImTLO0eVR3v-66" edge="1">
          <mxGeometry relative="1" as="geometry" />
        </mxCell>
        <mxCell id="hoaP64khOImTLO0eVR3v-59" style="rounded=0;orthogonalLoop=1;jettySize=auto;html=1;exitX=0;exitY=1;exitDx=0;exitDy=0;entryX=1;entryY=0;entryDx=0;entryDy=0;strokeWidth=3;" parent="1" source="hoaP64khOImTLO0eVR3v-61" target="hoaP64khOImTLO0eVR3v-67" edge="1">
          <mxGeometry relative="1" as="geometry" />
        </mxCell>
        <mxCell id="hoaP64khOImTLO0eVR3v-60" style="edgeStyle=orthogonalEdgeStyle;rounded=0;orthogonalLoop=1;jettySize=auto;html=1;exitX=0.5;exitY=0;exitDx=0;exitDy=0;entryX=0.5;entryY=1;entryDx=0;entryDy=0;strokeWidth=3;" parent="1" source="hoaP64khOImTLO0eVR3v-61" target="hoaP64khOImTLO0eVR3v-68" edge="1">
          <mxGeometry relative="1" as="geometry" />
        </mxCell>
        <mxCell id="hoaP64khOImTLO0eVR3v-61" value="&lt;font face=&quot;Ubuntu&quot;&gt;&lt;span style=&quot;font-size: 20px;&quot;&gt;&lt;b style=&quot;&quot;&gt;visualization module&lt;/b&gt;&lt;/span&gt;&lt;/font&gt;" style="ellipse;whiteSpace=wrap;html=1;aspect=fixed;strokeColor=#5FD3F2;fillColor=none;gradientColor=none;strokeWidth=3;" parent="1" vertex="1">
          <mxGeometry x="292.44" y="750" width="140" height="140" as="geometry" />
        </mxCell>
        <mxCell id="hoaP64khOImTLO0eVR3v-62" value="" style="verticalLabelPosition=bottom;verticalAlign=top;html=1;shape=mxgraph.basic.donut;dx=0;strokeColor=none;fillColor=#10739E;fontSize=10;align=center;fillOpacity=20;strokeWidth=4;" parent="1" vertex="1">
          <mxGeometry x="670" y="710" width="100" height="100" as="geometry" />
        </mxCell>
        <mxCell id="hoaP64khOImTLO0eVR3v-63" value="" style="verticalLabelPosition=bottom;verticalAlign=top;html=1;shape=mxgraph.basic.partConcEllipse;startAngle=0.30120819117478337;endAngle=0.6226935680937278;arcWidth=0.5;rotation=10;strokeWidth=3;" parent="1" vertex="1">
          <mxGeometry x="233.34" y="985.28" width="250" height="250" as="geometry" />
        </mxCell>
        <mxCell id="hoaP64khOImTLO0eVR3v-64" value="" style="verticalLabelPosition=bottom;verticalAlign=top;html=1;shape=mxgraph.basic.partConcEllipse;startAngle=0.30120819117478337;endAngle=0.6226935680937278;arcWidth=0.5;rotation=-110;strokeWidth=3;" parent="1" vertex="1">
          <mxGeometry x="236.78" y="979" width="250" height="250" as="geometry" />
        </mxCell>
        <mxCell id="hoaP64khOImTLO0eVR3v-65" style="edgeStyle=orthogonalEdgeStyle;rounded=0;orthogonalLoop=1;jettySize=auto;html=1;exitX=0.5;exitY=1;exitDx=0;exitDy=0;entryX=0.978;entryY=0.678;entryDx=0;entryDy=0;entryPerimeter=0;strokeWidth=3;" parent="1" source="hoaP64khOImTLO0eVR3v-61" target="hoaP64khOImTLO0eVR3v-64" edge="1">
          <mxGeometry relative="1" as="geometry" />
        </mxCell>
        <mxCell id="hoaP64khOImTLO0eVR3v-66" value="&lt;b style=&quot;border-color: var(--border-color); color: rgb(255, 255, 255); font-family: Ubuntu; font-size: 20px;&quot;&gt;Force&lt;br&gt;Simulation&lt;br&gt;&lt;/b&gt;" style="ellipse;whiteSpace=wrap;html=1;aspect=fixed;strokeColor=none;fillColor=#5FD3F2;" parent="1" vertex="1">
          <mxGeometry x="10" y="760" width="120" height="120" as="geometry" />
        </mxCell>
        <mxCell id="hoaP64khOImTLO0eVR3v-67" value="&lt;b style=&quot;border-color: var(--border-color); color: rgb(255, 255, 255); font-family: Ubuntu; font-size: 20px;&quot;&gt;Graph&lt;br&gt;Geometry&lt;br&gt;Model&lt;br&gt;&lt;/b&gt;" style="ellipse;whiteSpace=wrap;html=1;aspect=fixed;strokeColor=none;fillColor=#5FD3F2;" parent="1" vertex="1">
          <mxGeometry x="50" y="950" width="120" height="120" as="geometry" />
        </mxCell>
        <mxCell id="hoaP64khOImTLO0eVR3v-68" value="&lt;b style=&quot;border-color: var(--border-color); color: rgb(255, 255, 255); font-family: Ubuntu; font-size: 20px;&quot;&gt;mouse&lt;br&gt;EventHand.&lt;br&gt;&lt;/b&gt;" style="ellipse;whiteSpace=wrap;html=1;aspect=fixed;strokeColor=none;fillColor=#5FD3F2;" parent="1" vertex="1">
          <mxGeometry x="301.78" y="530" width="120" height="120" as="geometry" />
        </mxCell>
        <mxCell id="hoaP64khOImTLO0eVR3v-69" style="rounded=0;orthogonalLoop=1;jettySize=auto;html=1;exitX=1;exitY=1;exitDx=0;exitDy=0;entryX=0;entryY=0;entryDx=0;entryDy=0;endArrow=none;endFill=0;strokeWidth=3;" parent="1" source="hoaP64khOImTLO0eVR3v-71" target="hoaP64khOImTLO0eVR3v-53" edge="1">
          <mxGeometry relative="1" as="geometry" />
        </mxCell>
        <mxCell id="hoaP64khOImTLO0eVR3v-70" style="edgeStyle=orthogonalEdgeStyle;rounded=0;orthogonalLoop=1;jettySize=auto;html=1;exitX=0.5;exitY=1;exitDx=0;exitDy=0;endArrow=none;endFill=0;strokeWidth=3;" parent="1" source="hoaP64khOImTLO0eVR3v-71" target="hoaP64khOImTLO0eVR3v-73" edge="1">
          <mxGeometry relative="1" as="geometry" />
        </mxCell>
        <mxCell id="hoaP64khOImTLO0eVR3v-71" value="&lt;b style=&quot;border-color: var(--border-color); color: rgb(255, 255, 255); font-family: Ubuntu; font-size: 20px;&quot;&gt;Graph&lt;br&gt;Event&lt;br&gt;Hand.&lt;br&gt;Model&lt;br&gt;&lt;/b&gt;" style="ellipse;whiteSpace=wrap;html=1;aspect=fixed;strokeColor=none;fillColor=#5FD3F2;" parent="1" vertex="1">
          <mxGeometry x="580" y="540" width="120" height="120" as="geometry" />
        </mxCell>
        <mxCell id="hoaP64khOImTLO0eVR3v-72" style="rounded=0;orthogonalLoop=1;jettySize=auto;html=1;exitX=1;exitY=0.5;exitDx=0;exitDy=0;entryX=0;entryY=1;entryDx=0;entryDy=0;strokeWidth=3;endArrow=none;endFill=0;" parent="1" source="hoaP64khOImTLO0eVR3v-73" target="hoaP64khOImTLO0eVR3v-53" edge="1">
          <mxGeometry relative="1" as="geometry" />
        </mxCell>
        <mxCell id="hoaP64khOImTLO0eVR3v-73" value="&lt;b style=&quot;border-color: var(--border-color); color: rgb(255, 255, 255); font-family: Ubuntu; font-size: 20px;&quot;&gt;Visualization&lt;br&gt;&lt;/b&gt;" style="ellipse;whiteSpace=wrap;html=1;aspect=fixed;strokeColor=none;fillColor=#5FD3F2;" parent="1" vertex="1">
          <mxGeometry x="575" y="820" width="130" height="130" as="geometry" />
        </mxCell>
        <mxCell id="hoaP64khOImTLO0eVR3v-74" value="" style="edgeStyle=orthogonalEdgeStyle;rounded=0;orthogonalLoop=1;jettySize=auto;html=1;exitX=0;exitY=0.5;exitDx=0;exitDy=0;dashed=1;strokeWidth=3;curved=1;" parent="1" source="hoaP64khOImTLO0eVR3v-48" target="hoaP64khOImTLO0eVR3v-75" edge="1">
          <mxGeometry relative="1" as="geometry">
            <mxPoint x="1060" y="340" as="sourcePoint" />
            <mxPoint x="605" y="530" as="targetPoint" />
          </mxGeometry>
        </mxCell>
        <mxCell id="hoaP64khOImTLO0eVR3v-75" value="&lt;div style=&quot;color: rgb(41, 41, 41); background-color: rgb(255, 255, 255); font-family: Menlo, Monaco, Ubuntu, monospace, Menlo, Monaco, &amp;quot;Courier New&amp;quot;, monospace; font-size: 20px; line-height: 30px;&quot;&gt;onGraphInteraction&lt;/div&gt;" style="text;html=1;strokeColor=none;fillColor=none;align=center;verticalAlign=middle;whiteSpace=wrap;rounded=0;" parent="1" vertex="1">
          <mxGeometry x="800" y="325" width="60" height="30" as="geometry" />
        </mxCell>
        <mxCell id="hoaP64khOImTLO0eVR3v-76" value="&lt;font face=&quot;Ubuntu&quot; color=&quot;#ffffff&quot;&gt;&lt;span style=&quot;font-size: 20px;&quot;&gt;&lt;b&gt;Renders.ts&lt;br&gt;&lt;/b&gt;&lt;/span&gt;&lt;/font&gt;" style="ellipse;whiteSpace=wrap;html=1;aspect=fixed;strokeColor=none;fillColor=#5FD3F2;" parent="1" vertex="1">
          <mxGeometry x="298.34000000000003" y="1046" width="120" height="120" as="geometry" />
        </mxCell>
        <mxCell id="hoaP64khOImTLO0eVR3v-77" value="" style="verticalLabelPosition=bottom;verticalAlign=top;html=1;shape=mxgraph.basic.partConcEllipse;startAngle=0.30120819117478337;endAngle=0.6226935680937278;arcWidth=0.5;rotation=130;strokeWidth=3;" parent="1" vertex="1">
          <mxGeometry x="230.34" y="979" width="250" height="250" as="geometry" />
        </mxCell>
        <mxCell id="hoaP64khOImTLO0eVR3v-78" value="&lt;font size=&quot;1&quot; face=&quot;Ubuntu&quot; color=&quot;#eb6e52&quot;&gt;&lt;b style=&quot;font-size: 20px;&quot;&gt;On Canvas Interaction&lt;/b&gt;&lt;/font&gt;" style="text;html=1;strokeColor=none;fillColor=none;align=center;verticalAlign=middle;whiteSpace=wrap;rounded=0;rotation=333;" parent="1" vertex="1">
          <mxGeometry x="630" y="745" width="240" height="30" as="geometry" />
        </mxCell>
        <mxCell id="LhaaEZWdWjMe5rznVUrv-3" value="&lt;font face=&quot;Ubuntu&quot;&gt;&lt;span style=&quot;font-size: 20px;&quot;&gt;&lt;b&gt;(Shared States)&lt;/b&gt;&lt;/span&gt;&lt;/font&gt;" style="text;html=1;strokeColor=none;fillColor=none;align=center;verticalAlign=middle;whiteSpace=wrap;rounded=0;" vertex="1" parent="1">
          <mxGeometry x="1310" y="-930" width="180" height="30" as="geometry" />
        </mxCell>
        <mxCell id="LhaaEZWdWjMe5rznVUrv-6" value="" style="html=1;shadow=0;dashed=0;align=center;verticalAlign=middle;shape=mxgraph.arrows2.bendArrow;dy=15;dx=38;notch=0;arrowHead=55;rounded=0;strokeWidth=3;rotation=-90;fillColor=none;" vertex="1" parent="1">
          <mxGeometry x="17.67" y="-687.33" width="1109.68" height="975" as="geometry" />
        </mxCell>
        <mxCell id="LhaaEZWdWjMe5rznVUrv-7" value="&lt;font face=&quot;Ubuntu&quot;&gt;&lt;span style=&quot;font-size: 20px;&quot;&gt;&lt;b&gt;Suber bus&lt;/b&gt;&lt;/span&gt;&lt;/font&gt;" style="text;html=1;strokeColor=none;fillColor=none;align=center;verticalAlign=middle;whiteSpace=wrap;rounded=0;rotation=-90;" vertex="1" parent="1">
          <mxGeometry x="-40" y="-250" width="180" height="30" as="geometry" />
        </mxCell>
        <mxCell id="LhaaEZWdWjMe5rznVUrv-8" value="" style="html=1;shadow=0;dashed=0;align=center;verticalAlign=middle;shape=mxgraph.arrows2.bendArrow;dy=15;dx=38;notch=0;arrowHead=55;rounded=0;strokeWidth=3;rotation=-90;fillColor=none;" vertex="1" parent="1">
          <mxGeometry x="133.82" y="-803.5" width="889.68" height="988" as="geometry" />
        </mxCell>
        <mxCell id="LhaaEZWdWjMe5rznVUrv-9" value="&lt;font face=&quot;Ubuntu&quot;&gt;&lt;span style=&quot;font-size: 20px;&quot;&gt;&lt;b&gt;Suber receiver&lt;br&gt;(No States)&lt;br&gt;&lt;/b&gt;&lt;/span&gt;&lt;/font&gt;" style="text;html=1;strokeColor=none;fillColor=none;align=center;verticalAlign=middle;whiteSpace=wrap;rounded=0;rotation=0;" vertex="1" parent="1">
          <mxGeometry x="20" y="-940" width="180" height="30" as="geometry" />
        </mxCell>
        <mxCell id="LhaaEZWdWjMe5rznVUrv-11" value="" style="rounded=1;whiteSpace=wrap;html=1;fillColor=none;strokeWidth=3;" vertex="1" parent="1">
          <mxGeometry x="1010" y="20" width="240" height="410" as="geometry" />
        </mxCell>
        <mxCell id="LhaaEZWdWjMe5rznVUrv-12" value="&lt;font face=&quot;Ubuntu&quot;&gt;&lt;span style=&quot;font-size: 20px;&quot;&gt;&lt;b&gt;Suber sender&lt;br&gt;&lt;/b&gt;&lt;/span&gt;&lt;/font&gt;" style="text;html=1;strokeColor=none;fillColor=none;align=center;verticalAlign=middle;whiteSpace=wrap;rounded=0;rotation=0;" vertex="1" parent="1">
          <mxGeometry x="840" y="200" width="180" height="30" as="geometry" />
        </mxCell>
      </root>
    </mxGraphModel>
  </diagram>
</mxfile>
